<svg xmlns="http://www.w3.org/2000/svg" xml:space="preserve" width="66" height="13" viewBox="0 0 132 26"><path fill="#b22334" d="M35.445 2C34.752.809 33.477 0 32 0H18v2ZM0 20h36v2H0Zm18-8h18v2H18Zm0-4h18v2H18ZM0 16h36v2H0Zm4 10h28c1.477 0 2.752-.809 3.445-2H.555c.693 1.191 1.968 2 3.445 2ZM18 4h18v2H18Z"/><path fill="#eee" d="M.068 22.679c.017.093.036.186.059.277.026.101.058.198.092.296.089.259.197.509.333.743L.555 24h34.89l.002-.004a4.22 4.22 0 0 0 .332-.741 3.75 3.75 0 0 0 .152-.576c.041-.22.069-.446.069-.679H0c0 .233.028.458.068.679zM0 18h36v2H0Zm0-4v2h36v-2H18Zm18-4h18v2H18Zm0-4h18v2H18ZM0 4Zm.555-2-.003.005ZM.128 3.044c.025-.102.06-.199.092-.297a3.78 3.78 0 0 0-.092.297ZM18 4h18c0-.233-.028-.459-.069-.68a3.606 3.606 0 0 0-.153-.576A4.21 4.21 0 0 0 35.445 2H18Z"/><path fill="#3c3b6e" d="M18 0H4a4 4 0 0 0-4 4v10h18z"/><path fill="#fff" d="m2.001 2.726.618.449-.236.725L3 3.452l.618.448-.236-.725L4 2.726h-.764L3 2l-.235.726Zm2 2 .618.449-.236.725L5 5.452l.618.448-.236-.725L6 4.726h-.764L5 4l-.235.726Zm4 0 .618.449-.236.725L9 5.452l.618.448-.236-.725.618-.449h-.764L9 4l-.235.726Zm4 0 .618.449-.236.725.617-.448.618.448-.236-.725.618-.449h-.764L13 4l-.235.726Zm-8 4 .618.449-.236.725L5 9.452l.618.448-.236-.725L6 8.726h-.764L5 8l-.235.726Zm4 0 .618.449-.236.725L9 9.452l.618.448-.236-.725.618-.449h-.764L9 8l-.235.726Zm4 0 .618.449-.236.725.617-.448.618.448-.236-.725.618-.449h-.764L13 8l-.235.726Zm-6-6 .618.449-.236.725L7 3.452l.618.448-.236-.725L8 2.726h-.764L7 2l-.235.726Zm4 0 .618.449-.236.725.617-.448.618.448-.236-.725.618-.449h-.764L11 2l-.235.726Zm4 0 .618.449-.236.725.617-.448.618.448-.236-.725.618-.449h-.764L15 2l-.235.726Zm-12 4 .618.449-.236.725L3 7.452l.618.448-.236-.725L4 6.726h-.764L3 6l-.235.726ZM6.383 7.9 7 7.452l.618.448-.236-.725L8 6.726h-.764L7 6l-.235.726h-.764l.618.449Zm3.618-1.174.618.449-.236.725.617-.448.618.448-.236-.725.618-.449h-.764L11 6l-.235.726Zm4 0 .618.449-.236.725.617-.448.618.448-.236-.725.618-.449h-.764L15 6l-.235.726Zm-12 4 .618.449-.236.725.617-.448.618.448-.236-.725.618-.449h-.764L3 10l-.235.726ZM6.383 11.9 7 11.452l.618.448-.236-.725.618-.449h-.764L7 10l-.235.726h-.764l.618.449zm3.618-1.174.618.449-.236.725.617-.448.618.448-.236-.725.618-.449h-.764L11 10l-.235.726Zm4 0 .618.449-.236.725.617-.448.618.448-.236-.725.618-.449h-.764L15 10l-.235.726Z"/><g transform="translate(48 -5)"><path fill="#fe0000" d="M32 5H17v13H0v9a4 4 0 0 0 4 4h28a4 4 0 0 0 4-4V9a4 4 0 0 0-4-4Z"/><path fill="#000095" d="M17 5H4a4 4 0 0 0-4 4v9h17zm-6.063 4.61 2.035-.548-1.491 1.487a2.881 2.881 0 0 0-.544-.939Zm.251 1.89a2.438 2.438 0 1 1-4.876 0 2.438 2.438 0 0 1 4.876 0zm0-4.222-.548 2.035a2.871 2.871 0 0 0-.939-.544ZM8.75 6.625l.542 2.034a2.93 2.93 0 0 0-.542-.052 2.93 2.93 0 0 0-.542.052Zm-.951 2.144a2.881 2.881 0 0 0-.939.544l-.548-2.035Zm-1.236.841a2.871 2.871 0 0 0-.544.939L4.528 9.062Zm-.654 1.348a2.854 2.854 0 0 0 0 1.084L3.875 11.5Zm.11 1.492c.121.348.308.666.544.939l-2.035.548zm.293 3.272.548-2.035c.273.236.591.423.939.544zm2.438.653-.542-2.034a2.854 2.854 0 0 0 1.084 0zm.951-2.144c.348-.121.666-.308.939-.544l.548 2.035zm1.236-.841c.237-.273.423-.591.544-.939l1.491 1.487zm.654-1.348a2.854 2.854 0 0 0 0-1.084l2.034.542z"/><path fill="#fff" d="M9.292 8.659 8.75 6.625l-.542 2.034a2.93 2.93 0 0 1 .542-.052c.185 0 .367.019.542.052zM5.857 11.5c0-.185.018-.367.052-.542l-2.034.542 2.034.542a2.93 2.93 0 0 1-.052-.542Zm2.351 2.841.542 2.034.542-2.034a2.854 2.854 0 0 1-1.084 0zm3.435-2.841c0 .185-.018.367-.052.542l2.034-.542-2.034-.542c.033.175.052.357.052.542zm-.455-4.222L9.701 8.769c.348.122.666.308.939.544zm-.251 6.112 2.035.548-1.491-1.487a2.881 2.881 0 0 1-.544.939zm-4.625 2.332 1.487-1.491a2.889 2.889 0 0 1-.939-.544Zm.251-6.112-2.035-.548 1.491 1.487c.121-.348.307-.665.544-.939Zm3.138 4.621 1.487 1.491-.548-2.035a2.881 2.881 0 0 1-.939.544zM6.019 12.45l-1.491 1.487 2.035-.548a2.86 2.86 0 0 1-.544-.939Zm1.78-3.681L6.312 7.278l.548 2.035c.274-.237.591-.423.939-.544Zm5.173.293-2.035.548c.237.273.423.591.544.939z"/><circle cx="8.75" cy="11.5" r="2.438" fill="#fff"/></g><path fill="#005bbb" d="M128 0h-28a4 4 0 0 0-4 4v9h36V4a4 4 0 0 0-4-4Z"/><path fill="#ffd500" d="M132 22a4 4 0 0 1-4 4h-28a4 4 0 0 1-4-4v-9h36z"/></svg>